INFO:-

Format                           : Matroska
File size                        : 70.2 MiB
Duration                         : 3mn 54s
Overall bit rate                 : 2 511 Kbps
Movie name                       : Taylor Swift- Love Story 720p ~Abhinav4u~

ID                               : 1
Format                           : AVC
Format/Info                      : Advanced Video Codec
Format profile                   : Main@L5.1
Format settings, CABAC           : Yes
Format settings, ReFrames        : 5 frames
Muxing mode                      : Header stripping
Codec ID                         : V_MPEG4/ISO/AVC
Duration                         : 3mn 54s
Bit rate                         : 2 386 Kbps
Width                            : 1 280 pixels
Height                           : 720 pixels
Display aspect ratio             : 16:9
Frame rate                       : 25.000 fps
Color space                      : YUV
Chroma subsampling               : 4:2:0
Bit depth                        : 8 bits
Scan type                        : Progressive
Bits/(Pixel*Frame)               : 0.104
Stream size                      : 64.3 MiB (92%)
Title                            : Ripper::~Abhinav4u~


[img]http://i.minus.com/imYQiRBATqZkc.png[/img]
[color=green][size=5]ID                               : 2
Format                           : Vorbis
Format settings, Floor           : 1
Codec ID                         : A_VORBIS
Duration                         : 3mn 54s
Bit rate mode                    : Constant
Bit rate                         : 160 Kbps
Channel(s)                       : 2 channels
Sampling rate                    : 48.0 KHz
Compression mode                 : Lossy
Stream size                      : 4.47 MiB (6%)
Title                            : Eng ~Abhinav4u~
Writing library                  : libVorbis 1.2 (UTC 2007-06-22)
Language                         : English

SCREENS:-
 
http://i.minus.com/i6ChuVJ7BNUnt.png 
http://i.minus.com/iZCb7fkkssdCn.png 
http://i.minus.com/ij6qzbiIVBoFM.png 
http://i.minus.com/ivRd2iMIaSUMZ.png 
http://i.minus.com/i83Vx1v1JJUqs.png 
http://i.minus.com/iKeZzWCjT7b6g.png 
http://i.minus.com/i7BTdumrU3dS2.png

Regards::Abhinav4

